<svg width="20" height="20" viewBox="0 0 20 20" fill="none" xmlns="http://www.w3.org/2000/svg">
<path d="M6.49984 1.66668H13.4998C16.1692 1.66668 18.3332 3.83064 18.3332 6.50002V13.5C18.3332 16.1694 16.1692 18.3333 13.4998 18.3333H6.49984C3.83046 18.3333 1.6665 16.1694 1.6665 13.5V6.50002C1.6665 3.83064 3.83046 1.66668 6.49984 1.66668ZM6.33317 3.33333C4.67631 3.33333 3.33317 4.67648 3.33317 6.33333V13.6667C3.33317 15.3235 4.67631 16.6667 6.33317 16.6667H13.6665C15.3233 16.6667 16.6665 15.3235 16.6665 13.6667V6.33333C16.6665 4.67648 15.3233 3.33333 13.6665 3.33333H6.33317ZM14.3748 4.58333C14.9502 4.58333 15.4165 5.04971 15.4165 5.625C15.4165 6.2003 14.9502 6.66667 14.3748 6.66667C13.7995 6.66667 13.3332 6.2003 13.3332 5.625C13.3332 5.04971 13.7995 4.58333 14.3748 4.58333ZM9.99984 5.83333C12.301 5.83333 14.1665 7.69882 14.1665 10C14.1665 12.3012 12.301 14.1667 9.99984 14.1667C7.69865 14.1667 5.83317 12.3012 5.83317 10C5.83317 7.69882 7.69865 5.83333 9.99984 5.83333ZM9.99984 7.5C8.61909 7.5 7.49984 8.61933 7.49984 10C7.49984 11.3807 8.61909 12.5 9.99984 12.5C11.3806 12.5 12.4998 11.3807 12.4998 10C12.4998 8.61933 11.3806 7.5 9.99984 7.5Z" fill="white"/>
</svg>
